<?xml version="1.0" standalone="no"?>
<!DOCTYPE svg PUBLIC "-//W3C//DTD SVG 20010904//EN"
 "http://www.w3.org/TR/2001/REC-SVG-20010904/DTD/svg10.dtd">
<svg version="1.0" xmlns="http://www.w3.org/2000/svg"
 width="1024.000000pt" height="1024.000000pt" viewBox="0 0 1024.000000 1024.000000"
 preserveAspectRatio="xMidYMid meet">
<metadata>
Created by potrace 1.14, written by Peter Selinger 2001-2017
</metadata>
<g transform="translate(0.000000,1024.000000) scale(0.100000,-0.100000)"
fill="#000000" stroke="none">
<path d="M0 5120 l0 -5120 5120 0 5120 0 0 5120 0 5120 -5120 0 -5120 0 0
-5120z m8178 3166 c38 -20 78 -65 96 -108 14 -34 16 -349 16 -3055 0 -2916 -1
-3019 -19 -3058 -10 -22 -33 -53 -50 -70 l-32 -30 -1682 -5 c-925 -3 -2296 -5
-3047 -5 l-1365 0 -37 23 c-22 14 -46 41 -60 70 l-23 47 0 3035 0 3035 24 43
c26 44 56 69 100 82 14 5 1382 9 3039 9 2575 1 3017 -1 3040 -13z"/>
<path d="M2228 8046 c-15 -14 -16 -256 -14 -2915 1 -2405 4 -2901 15 -2915 12
-15 258 -16 2917 -16 l2904 0 0 2914 c0 2319 -3 2916 -12 2924 -9 7 -971 12
-2903 17 -2656 7 -2892 6 -2907 -9z m1603 -1152 c23 -22 64 -92 113 -188 56
-114 100 -184 168 -272 97 -127 264 -304 286 -304 7 0 38 9 70 21 270 99 580
138 862 109 128 -14 266 -45 465 -106 94 -29 86 -32 166 48 148 145 268 313
369 512 38 77 82 152 97 168 50 53 129 57 201 10 38 -25 142 -163 183 -243 61
-123 82 -226 76 -383 -4 -109 -10 -149 -37 -241 -40 -137 -111 -277 -201 -397
-39 -53 -67 -100 -65 -108 81 -247 115 -519 96 -748 -20 -238 -66 -409 -161
-607 -88 -183 -163 -290 -298 -426 -226 -226 -460 -353 -762 -415 -121 -25
-154 -27 -334 -27 -176 1 -215 4 -323 27 -118 25 -193 46 -237 66 -11 5 -56
25 -100 45 -125 56 -268 158 -394 280 -115 111 -185 205 -268 355 -222 402
-272 886 -140 1342 l33 118 -38 46 c-54 65 -150 228 -182 308 -63 157 -86 266
-86 409 0 175 31 288 116 421 59 91 104 139 179 188 70 46 91 45 146 -8z"/>
<path d="M3683 6553 c-53 -119 -58 -142 -58 -263 0 -119 4 -136 63 -294 48
-130 151 -288 251 -385 64 -62 240 -200 339 -266 343 -227 415 -301 449 -460
15 -71 11 -151 -8 -187 -26 -48 -102 -70 -168 -47 -35 12 -37 19 -45 127 -3
50 -12 84 -26 107 -32 51 -124 130 -220 187 -47 28 -137 90 -200 136 -63 47
-130 96 -148 109 l-32 24 -9 -23 c-51 -140 -64 -527 -23 -727 37 -175 33 -172
146 -149 l58 11 56 -62 c111 -126 341 -269 530 -330 182 -60 287 -76 492 -75
195 1 310 16 467 63 95 27 229 83 295 122 66 39 204 146 285 221 34 32 71 58
81 58 10 0 41 -7 68 -15 27 -8 52 -15 56 -15 9 0 34 114 53 238 31 209 13 532
-37 649 l-14 32 -66 -52 c-76 -60 -120 -91 -318 -223 -80 -53 -156 -106 -169
-118 -36 -32 -60 -94 -62 -156 -1 -82 -19 -123 -60 -137 -74 -26 -136 -7 -160
49 -9 20 -14 68 -14 123 1 183 67 261 421 494 234 153 435 327 511 441 141
210 213 457 184 629 -10 64 -76 212 -97 218 -6 2 -16 -8 -22 -22 -22 -47 -162
-266 -210 -327 -75 -95 -292 -313 -346 -347 -58 -36 -77 -38 -148 -12 -89 33
-247 77 -363 102 -97 21 -137 24 -335 24 -261 0 -351 -14 -576 -91 -142 -48
-204 -55 -257 -28 -45 23 -203 180 -307 304 -95 115 -158 207 -222 330 -23 44
-45 80 -49 80 -3 0 -20 -30 -36 -67z"/>
<path d="M4026 4119 c120 -161 288 -323 446 -429 l43 -29 3 76 c2 42 1 82 -2
88 -2 7 -67 47 -143 89 -165 92 -248 142 -294 177 -49 37 -67 46 -53 28z"/>
<path d="M6180 4081 c-62 -50 -197 -129 -325 -191 -109 -53 -125 -63 -125 -85
0 -38 21 -125 30 -125 24 0 191 127 275 209 89 87 192 208 184 216 -2 2 -20
-9 -39 -24z"/>
<path d="M5390 3769 c-127 -23 -361 -24 -508 -3 -62 9 -115 14 -118 12 -2 -3
-6 -52 -7 -109 l-2 -104 100 -18 c67 -12 160 -18 280 -20 171 -1 227 4 337 34
l41 11 -6 100 c-4 56 -10 104 -14 108 -4 3 -51 -2 -103 -11z"/>
</g>
</svg>
